# xmcd
#
# Track frame offsets: 
#        183
#        18445
#        40915
#        54040
#        71700
#        90528
#        108593
#        126600
#        147600
#        170665
#        189775
#        207205
#        228595
#        246548
#        269765
#        291938
#
# Disc length: 4151 seconds
#
# Revision: 8
# Processed by: cddbd v1.5.2PL0 Copyright (c) Steve Scherf et al.
# Submitted via: ExactAudioCopy v1.0b3
#
DISCID=fb103510
DTITLE=SOUTHERN ALL STARS - SUIKA Vol.4 1984-1988 [CD4]
DYEAR=1989
DGENRE=Pop
TTITLE0=JAPANEGGAE
TTITLE1=????????????
TTITLE2=?????????Tonight
TTITLE3=????
TTITLE4=?
TTITLE5=???????????
TTITLE6=??????????
TTITLE7=HAPPY BIRTHDAY
TTITLE8=MELODY
TTITLE9=??????
TTITLE10=????
TTITLE11=Bye Bye My Love
TTITLE12=???????????
TTITLE13=?????
TTITLE14=?????
TTITLE15=??????
EXTD=YEAR: 1989
EXTT0=
EXTT1=
EXTT2=
EXTT3=
EXTT4=
EXTT5=
EXTT6=
EXTT7=
EXTT8=
EXTT9=
EXTT10=
EXTT11=
EXTT12=
EXTT13=
EXTT14=
EXTT15=
PLAYORDER=
